<svg xmlns="http://www.w3.org/2000/svg" xmlns:xlink="http://www.w3.org/1999/xlink" width="90" zoomAndPan="magnify" viewBox="0 0 67.5 67.499996" height="90" preserveAspectRatio="xMidYMid meet" version="1.0"><defs><clipPath id="a1e8cc255f"><path d="M 0 0 L 67.003906 0 L 67.003906 67.003906 L 0 67.003906 Z M 0 0 " clip-rule="nonzero"/></clipPath><clipPath id="cbfe8ffa5b"><path d="M 11.078125 38 L 60.554688 38 L 60.554688 62.542969 L 11.078125 62.542969 Z M 11.078125 38 " clip-rule="nonzero"/></clipPath><clipPath id="f45faba702"><path d="M 1.59375 2.550781 L 62.34375 2.550781 L 62.34375 42.835938 L 1.59375 42.835938 Z M 1.59375 2.550781 " clip-rule="nonzero"/></clipPath></defs><g clip-path="url(#a1e8cc255f)"><path fill="#ffffff" d="M 0 0 L 67.5 0 L 67.5 67.5 L 0 67.5 Z M 0 0 " fill-opacity="1" fill-rule="nonzero"/><path fill="#ffffff" d="M 0 0 L 67.5 0 L 67.5 67.5 L 0 67.5 Z M 0 0 " fill-opacity="1" fill-rule="nonzero"/></g><g clip-path="url(#cbfe8ffa5b)"><path fill="#000000" d="M 60.503906 38.0625 L 56.292969 61.179688 L 13.445312 62.542969 L 11.132812 40.09375 L 60.503906 38.0625 " fill-opacity="1" fill-rule="nonzero"/></g><g clip-path="url(#f45faba702)"><path fill="#000000" d="M 28.625 40.929688 L 38.625 40.273438 L 41.980469 30.976562 L 31.902344 31.480469 Z M 29.824219 14.234375 C 26.257812 16.003906 20.035156 19.105469 19.871094 19.253906 L 25.203125 26.582031 L 38.554688 20.15625 Z M 16.050781 30.78125 L 9.210938 24.503906 L 1.59375 28.113281 L 6.589844 35.984375 L 9.1875 34.558594 L 8.960938 42.804688 L 19.425781 41.777344 L 24.242188 31.863281 L 13.082031 32.414062 Z M 58.640625 10.992188 L 52.214844 2.550781 L 41.730469 8.003906 L 50.371094 15.039062 Z M 62.347656 39.007812 L 48.980469 39.675781 L 51.929688 30.476562 L 62.324219 29.957031 L 62.347656 39.007812 " fill-opacity="1" fill-rule="nonzero"/></g><path fill="#f6f6f6" d="M 19.417969 41.792969 L 28.625 40.925781 L 31.902344 31.480469 L 24.242188 31.863281 Z M 41.980469 30.976562 L 38.625 40.273438 L 48.980469 39.675781 L 51.929688 30.476562 Z M 28.695312 24.898438 L 25.242188 26.5625 L 28.75 24.949219 Z M 19.871094 19.253906 L 9.210938 24.503906 L 16.050781 30.78125 L 25.203125 26.578125 Z M 51.066406 14.734375 L 38.5625 20.160156 L 29.824219 14.234375 L 41.730469 8.003906 L 50.371094 15.039062 L 51.035156 14.710938 L 51.066406 14.734375 " fill-opacity="1" fill-rule="nonzero"/><path fill="#00cc7f" d="M 16.449219 39.429688 L 5.84375 39.960938 L 6.078125 27.5 Z M 16.449219 39.429688 " fill-opacity="1" fill-rule="nonzero"/><path fill="#ffffff" d="M 9.660156 34.226562 C 9.515625 34.1875 9.359375 34.1875 9.210938 34.203125 C 9.039062 34.21875 8.867188 34.257812 8.722656 34.359375 L 8.765625 34.265625 C 8.265625 34.640625 7.867188 35.25 7.832031 35.9375 C 7.800781 36.625 8.222656 37.355469 8.820312 37.457031 C 9.207031 37.523438 9.59375 37.332031 9.925781 37.097656 C 10.261719 36.863281 10.589844 36.542969 10.671875 36.101562 C 10.726562 35.800781 10.65625 35.484375 10.542969 35.199219 C 10.371094 34.757812 10.074219 34.339844 9.660156 34.226562 Z M 53.671875 59.617188 C 53.699219 59.617188 53.730469 59.613281 53.761719 59.609375 C 53.730469 59.613281 53.699219 59.617188 53.671875 59.617188 Z M 54.792969 59.472656 C 54.730469 60.039062 54.082031 60.414062 53.566406 60.421875 C 53.03125 60.429688 52.566406 60.023438 52.648438 59.46875 C 52.734375 58.902344 53.398438 58.644531 53.894531 58.632812 C 54.089844 58.628906 54.316406 58.707031 54.425781 58.863281 C 54.660156 58.96875 54.824219 59.164062 54.792969 59.472656 Z M 49.496094 59.613281 C 49.507812 59.621094 49.519531 59.625 49.535156 59.628906 C 49.535156 59.628906 49.535156 59.628906 49.539062 59.628906 C 49.523438 59.625 49.507812 59.621094 49.496094 59.613281 Z M 50.855469 59.285156 C 50.96875 59.496094 50.902344 59.746094 50.765625 59.929688 C 50.59375 60.167969 50.292969 60.285156 50.011719 60.335938 C 49.492188 60.425781 48.710938 60.195312 48.839844 59.527344 C 48.878906 59.316406 49.039062 59.121094 49.210938 59.003906 C 49.550781 58.765625 50.03125 58.722656 50.410156 58.894531 C 50.476562 58.925781 50.535156 58.972656 50.582031 59.03125 C 50.695312 59.089844 50.792969 59.171875 50.855469 59.285156 Z M 45.902344 59.6875 C 45.972656 59.730469 46.039062 59.753906 46.105469 59.757812 C 46.03125 59.742188 45.960938 59.71875 45.902344 59.6875 Z M 46.636719 59.058594 C 46.839844 59.292969 46.933594 59.59375 46.855469 59.898438 C 46.734375 60.375 46.238281 60.601562 45.785156 60.488281 C 45.242188 60.355469 44.707031 59.726562 44.964844 59.152344 C 45.058594 58.949219 45.171875 58.753906 45.367188 58.632812 C 45.628906 58.476562 45.964844 58.527344 46.222656 58.660156 C 46.382812 58.742188 46.53125 58.878906 46.621094 59.039062 C 46.628906 59.046875 46.632812 59.050781 46.636719 59.058594 Z M 41.773438 59.925781 C 41.648438 59.988281 41.488281 60.015625 41.328125 60.015625 C 41.441406 60.042969 41.585938 60.019531 41.773438 59.925781 Z M 42.519531 59.722656 C 42.566406 60.355469 41.808594 60.679688 41.289062 60.683594 C 40.972656 60.6875 40.621094 60.613281 40.351562 60.4375 C 40.078125 60.261719 40.042969 59.980469 40.132812 59.691406 C 40.289062 59.164062 40.761719 58.859375 41.292969 58.820312 C 41.511719 58.804688 41.847656 58.882812 41.984375 59.089844 C 42.269531 59.191406 42.496094 59.394531 42.519531 59.722656 Z M 37.660156 59.222656 C 37.519531 59.09375 37.296875 59.0625 37.09375 59.085938 C 36.566406 59.140625 36.007812 59.539062 35.929688 60.089844 C 35.839844 60.726562 36.5625 61.007812 37.082031 60.917969 C 37.578125 60.835938 38.15625 60.425781 38.148438 59.867188 C 38.140625 59.546875 37.929688 59.324219 37.660156 59.222656 Z M 32.480469 60.289062 C 32.484375 60.289062 32.484375 60.289062 32.488281 60.289062 C 32.484375 60.289062 32.484375 60.289062 32.484375 60.289062 C 32.484375 60.289062 32.480469 60.289062 32.480469 60.289062 Z M 33.265625 60.089844 C 33.285156 60.292969 33.183594 60.523438 33.066406 60.683594 C 32.917969 60.882812 32.6875 60.992188 32.445312 61.023438 C 31.9375 61.089844 31.214844 60.800781 31.097656 60.238281 C 31.035156 59.929688 31.199219 59.6875 31.4375 59.539062 C 31.484375 59.484375 31.546875 59.441406 31.628906 59.421875 C 31.996094 59.328125 32.351562 59.3125 32.707031 59.464844 C 32.960938 59.570312 33.234375 59.796875 33.265625 60.089844 Z M 27.832031 59.613281 C 27.824219 59.613281 27.816406 59.613281 27.804688 59.613281 C 27.800781 59.609375 27.792969 59.609375 27.789062 59.605469 C 27.664062 59.574219 27.484375 59.53125 27.371094 59.613281 C 27.066406 59.84375 26.78125 60.132812 26.898438 60.546875 C 27.050781 61.09375 27.796875 61.699219 28.378906 61.382812 C 28.53125 61.296875 28.652344 61.144531 28.730469 60.992188 C 28.875 60.707031 28.886719 60.429688 28.703125 60.15625 C 28.511719 59.871094 28.175781 59.652344 27.832031 59.613281 Z M 23.605469 60.699219 C 23.601562 60.699219 23.601562 60.699219 23.601562 60.699219 C 23.640625 60.726562 23.640625 60.726562 23.605469 60.699219 Z M 23.589844 60.699219 C 23.601562 60.710938 23.621094 60.734375 23.597656 60.699219 C 23.59375 60.699219 23.589844 60.699219 23.589844 60.699219 Z M 24.554688 60.535156 C 24.410156 61.140625 23.847656 61.636719 23.242188 61.730469 C 22.679688 61.816406 22.117188 61.464844 22.28125 60.839844 C 22.441406 60.238281 23.136719 59.625 23.769531 59.703125 C 23.875 59.714844 23.957031 59.75 24.019531 59.800781 C 24.101562 59.804688 24.179688 59.820312 24.257812 59.851562 C 24.546875 59.96875 24.621094 60.253906 24.554688 60.535156 Z M 19.773438 60.921875 C 19.765625 60.945312 19.753906 60.960938 19.746094 60.984375 C 19.757812 60.964844 19.765625 60.945312 19.773438 60.921875 Z M 19.960938 60.195312 C 20.328125 60.621094 20.246094 61.304688 19.75 61.589844 C 19.199219 61.902344 18.421875 61.761719 18.136719 61.15625 C 18.003906 60.875 18.035156 60.523438 18.21875 60.273438 C 18.351562 60.085938 18.5625 59.972656 18.773438 59.898438 C 18.855469 59.867188 18.941406 59.859375 19.023438 59.863281 C 19.351562 59.804688 19.738281 59.933594 19.960938 60.195312 Z M 16.023438 60.28125 C 16.011719 60.25 16 60.21875 15.984375 60.195312 C 15.785156 59.914062 15.355469 59.976562 15.105469 60.144531 C 14.761719 60.378906 14.480469 60.714844 14.410156 61.136719 C 14.394531 61.226562 14.390625 61.335938 14.40625 61.425781 C 14.433594 61.605469 14.539062 61.703125 14.703125 61.769531 C 14.875 61.835938 15.082031 61.84375 15.261719 61.8125 C 15.710938 61.734375 16.226562 61.363281 16.265625 60.871094 C 16.285156 60.636719 16.1875 60.417969 16.023438 60.28125 Z M 56.828125 48.6875 C 53.324219 48.839844 49.824219 48.988281 46.320312 49.140625 C 46.585938 51.15625 46.851562 53.171875 47.117188 55.191406 C 47.148438 55.25 47.167969 55.3125 47.164062 55.378906 C 47.160156 55.417969 47.160156 55.457031 47.15625 55.492188 C 47.121094 56.152344 45.398438 55.863281 45.316406 55.246094 C 45.050781 53.238281 44.785156 51.226562 44.523438 49.214844 C 39.480469 49.433594 34.441406 49.648438 29.398438 49.863281 C 29.460938 52.4375 29.675781 54.996094 30.046875 57.542969 C 30.089844 57.828125 28.273438 57.832031 28.203125 57.335938 C 27.84375 54.882812 27.632812 52.421875 27.5625 49.945312 C 23.625 50.113281 19.6875 50.28125 15.75 50.449219 C 15.210938 50.472656 13.8125 49.390625 14.820312 49.347656 C 21.203125 49.074219 27.582031 48.800781 33.964844 48.527344 C 33.9375 48.4375 33.917969 48.34375 33.917969 48.246094 C 33.917969 46.433594 33.734375 44.636719 33.402344 42.855469 C 33.179688 41.660156 34.8125 41.933594 35 42.929688 C 35.34375 44.761719 35.507812 46.597656 35.523438 48.460938 C 42.316406 48.167969 49.105469 47.878906 55.898438 47.585938 C 56.4375 47.5625 57.835938 48.644531 56.828125 48.6875 " fill-opacity="1" fill-rule="nonzero"/></svg>