<svg xmlns="http://www.w3.org/2000/svg" xmlns:xlink="http://www.w3.org/1999/xlink" width="90" zoomAndPan="magnify" viewBox="0 0 67.5 67.499996" height="90" preserveAspectRatio="xMidYMid meet" version="1.0"><defs><clipPath id="cf845ff1f5"><path d="M 0 0 L 67.003906 0 L 67.003906 67.003906 L 0 67.003906 Z M 0 0 " clip-rule="nonzero"/></clipPath><clipPath id="ba72bb202b"><path d="M 6 35 L 63.699219 35 L 63.699219 39 L 6 39 Z M 6 35 " clip-rule="nonzero"/></clipPath><clipPath id="f5f5e055fd"><path d="M 32 2.386719 L 38 2.386719 L 38 8 L 32 8 Z M 32 2.386719 " clip-rule="nonzero"/></clipPath><clipPath id="b30c5a9f4e"><path d="M 3.699219 42 L 18 42 L 18 63.136719 L 3.699219 63.136719 Z M 3.699219 42 " clip-rule="nonzero"/></clipPath></defs><g clip-path="url(#cf845ff1f5)"><path fill="#ffffff" d="M 0 0 L 67.5 0 L 67.5 67.5 L 0 67.5 Z M 0 0 " fill-opacity="1" fill-rule="nonzero"/><path fill="#ffffff" d="M 0 0 L 67.5 0 L 67.5 67.5 L 0 67.5 Z M 0 0 " fill-opacity="1" fill-rule="nonzero"/></g><g clip-path="url(#ba72bb202b)"><path fill="#2b2929" d="M 63.699219 38.28125 L 6.792969 38.28125 L 6.792969 35.773438 L 63.699219 35.773438 L 63.699219 38.28125 " fill-opacity="1" fill-rule="nonzero"/></g><g clip-path="url(#f5f5e055fd)"><path fill="#2b2929" d="M 37.941406 4.976562 C 37.941406 6.402344 36.789062 7.558594 35.367188 7.558594 C 33.945312 7.558594 32.792969 6.402344 32.792969 4.976562 C 32.792969 3.554688 33.945312 2.398438 35.367188 2.398438 C 36.789062 2.398438 37.941406 3.554688 37.941406 4.976562 " fill-opacity="1" fill-rule="nonzero"/></g><path fill="#2b2929" d="M 18.617188 30.410156 L 14.027344 30.410156 C 14.027344 10.65625 29.785156 8.777344 35.367188 8.777344 C 20.496094 8.777344 18.617188 30.410156 18.617188 30.410156 Z M 35.246094 7.484375 C 7.488281 7.484375 11.664062 33.40625 11.664062 33.40625 L 59.105469 33.40625 C 59.105469 33.40625 63.003906 7.484375 35.246094 7.484375 " fill-opacity="1" fill-rule="nonzero"/><g clip-path="url(#b30c5a9f4e)"><path fill="#2b2929" d="M 5.367188 43.683594 L 5.367188 61.023438 L 15.386719 58.695312 L 15.386719 43.683594 Z M 3.699219 63.128906 L 3.699219 42.011719 L 17.054688 42.011719 L 17.054688 60.023438 L 3.699219 63.128906 " fill-opacity="1" fill-rule="nonzero"/></g><path fill="#2b2929" d="M 18.515625 42.847656 C 18.515625 42.847656 31.140625 37.027344 44.289062 42.847656 L 43.535156 44.039062 C 42.769531 45.25 41.441406 45.980469 40.007812 45.980469 L 32.082031 45.980469 C 32.082031 45.980469 28.078125 47.445312 32.792969 47.445312 C 37.507812 47.445312 45.644531 47.445312 45.644531 47.445312 C 45.644531 47.445312 55.246094 40.574219 60.046875 43.851562 L 44.914062 54.761719 L 18.515625 56.957031 L 18.515625 42.847656 " fill-opacity="1" fill-rule="nonzero"/></svg>