<svg xmlns="http://www.w3.org/2000/svg" xmlns:xlink="http://www.w3.org/1999/xlink" width="90" zoomAndPan="magnify" viewBox="0 0 67.5 67.499996" height="90" preserveAspectRatio="xMidYMid meet" version="1.0"><defs><clipPath id="221c8d3471"><path d="M 0 0 L 67.003906 0 L 67.003906 67.003906 L 0 67.003906 Z M 0 0 " clip-rule="nonzero"/></clipPath><clipPath id="4cd98f6b9f"><path d="M 10 16 L 49 16 L 49 55 L 10 55 Z M 10 16 " clip-rule="nonzero"/></clipPath><clipPath id="d4830a1fe3"><path d="M 50.152344 -4.578125 L 74.363281 31.558594 L 20.78125 67.464844 L -3.433594 31.324219 Z M 50.152344 -4.578125 " clip-rule="nonzero"/></clipPath><clipPath id="30c5e13080"><path d="M 50.152344 -4.578125 L 74.363281 31.558594 L 20.78125 67.464844 L -3.433594 31.324219 Z M 50.152344 -4.578125 " clip-rule="nonzero"/></clipPath><clipPath id="4d7a5e17bc"><path d="M 6 42 L 16 42 L 16 53 L 6 53 Z M 6 42 " clip-rule="nonzero"/></clipPath><clipPath id="433180ed6d"><path d="M 50.152344 -4.578125 L 74.363281 31.558594 L 20.78125 67.464844 L -3.433594 31.324219 Z M 50.152344 -4.578125 " clip-rule="nonzero"/></clipPath><clipPath id="bbac44e286"><path d="M 50.152344 -4.578125 L 74.363281 31.558594 L 20.78125 67.464844 L -3.433594 31.324219 Z M 50.152344 -4.578125 " clip-rule="nonzero"/></clipPath><clipPath id="d8e2c1a741"><path d="M 20 23 L 29 23 L 29 55 L 20 55 Z M 20 23 " clip-rule="nonzero"/></clipPath><clipPath id="7a0a9fd73d"><path d="M 50.152344 -4.578125 L 74.363281 31.558594 L 20.78125 67.464844 L -3.433594 31.324219 Z M 50.152344 -4.578125 " clip-rule="nonzero"/></clipPath><clipPath id="937ca6325d"><path d="M 50.152344 -4.578125 L 74.363281 31.558594 L 20.78125 67.464844 L -3.433594 31.324219 Z M 50.152344 -4.578125 " clip-rule="nonzero"/></clipPath><clipPath id="9b5e19db8a"><path d="M 31 16 L 40 16 L 40 50 L 31 50 Z M 31 16 " clip-rule="nonzero"/></clipPath><clipPath id="a9e63c20d2"><path d="M 50.152344 -4.578125 L 74.363281 31.558594 L 20.78125 67.464844 L -3.433594 31.324219 Z M 50.152344 -4.578125 " clip-rule="nonzero"/></clipPath><clipPath id="791a1a8704"><path d="M 50.152344 -4.578125 L 74.363281 31.558594 L 20.78125 67.464844 L -3.433594 31.324219 Z M 50.152344 -4.578125 " clip-rule="nonzero"/></clipPath><clipPath id="81373dfd4c"><path d="M 45 12 L 63 12 L 63 26 L 45 26 Z M 45 12 " clip-rule="nonzero"/></clipPath><clipPath id="cdc4f024fa"><path d="M 50.152344 -4.578125 L 74.363281 31.558594 L 20.78125 67.464844 L -3.433594 31.324219 Z M 50.152344 -4.578125 " clip-rule="nonzero"/></clipPath><clipPath id="3c25b39ae7"><path d="M 50.152344 -4.578125 L 74.363281 31.558594 L 20.78125 67.464844 L -3.433594 31.324219 Z M 50.152344 -4.578125 " clip-rule="nonzero"/></clipPath><clipPath id="658868edd8"><path d="M 7 13 L 52 13 L 52 58 L 7 58 Z M 7 13 " clip-rule="nonzero"/></clipPath><clipPath id="49e52b5cfd"><path d="M 50.152344 -4.578125 L 74.363281 31.558594 L 20.78125 67.464844 L -3.433594 31.324219 Z M 50.152344 -4.578125 " clip-rule="nonzero"/></clipPath><clipPath id="4cbc95a7d8"><path d="M 50.152344 -4.578125 L 74.363281 31.558594 L 20.78125 67.464844 L -3.433594 31.324219 Z M 50.152344 -4.578125 " clip-rule="nonzero"/></clipPath></defs><g clip-path="url(#221c8d3471)"><path fill="#ffffff" d="M 0 0 L 67.5 0 L 67.5 67.5 L 0 67.5 Z M 0 0 " fill-opacity="1" fill-rule="nonzero"/><path fill="#ffffff" d="M 0 0 L 67.5 0 L 67.5 67.5 L 0 67.5 Z M 0 0 " fill-opacity="1" fill-rule="nonzero"/></g><g clip-path="url(#4cd98f6b9f)"><g clip-path="url(#d4830a1fe3)"><g clip-path="url(#30c5e13080)"><path fill="#362e2a" d="M 38.3125 18.171875 C 41.164062 19.625 43.695312 21.800781 45.605469 24.652344 C 51.535156 33.503906 49.199219 45.484375 40.386719 51.386719 C 36.03125 54.304688 30.898438 55.195312 26.109375 54.28125 L 26.082031 53.636719 L 26.105469 45.042969 C 26.105469 45.027344 26.101562 45.015625 26.101562 45 C 26.105469 44.984375 26.105469 44.964844 26.105469 44.949219 C 26.113281 44.367188 26.144531 41.382812 26.160156 40.089844 C 26.164062 39.945312 26.226562 39.808594 26.335938 39.710938 C 27.0625 39.066406 28.378906 37.765625 28.761719 36.808594 C 29.261719 35.550781 29.109375 32.417969 29.097656 32.125 L 28.953125 23.648438 C 28.949219 23.597656 28.945312 23.546875 28.933594 23.496094 C 28.804688 22.871094 28.253906 22.480469 27.691406 22.445312 C 27.070312 22.402344 26.472656 22.742188 26.363281 23.511719 C 26.363281 23.53125 26.359375 23.546875 26.359375 23.566406 L 26.011719 28.675781 L 25.777344 23.519531 C 25.757812 23.027344 25.449219 22.59375 24.996094 22.410156 C 24.640625 22.265625 24.246094 22.257812 23.890625 22.382812 C 23.425781 22.546875 23.105469 22.96875 23.0625 23.457031 L 22.640625 28.601562 L 22.484375 23.480469 C 22.484375 23.460938 22.480469 23.441406 22.480469 23.425781 C 22.402344 22.648438 21.816406 22.28125 21.191406 22.296875 C 20.632812 22.308594 20.066406 22.675781 19.914062 23.292969 C 19.902344 23.339844 19.894531 23.390625 19.890625 23.441406 L 19.433594 31.90625 C 19.40625 32.199219 19.144531 35.320312 19.597656 36.601562 C 19.945312 37.578125 21.207031 38.929688 21.914062 39.613281 C 22.019531 39.710938 22.078125 39.851562 22.074219 40 C 22.039062 41.433594 21.949219 44.957031 21.949219 44.957031 L 21.679688 52.863281 C 18.535156 51.425781 15.742188 49.125 13.675781 46.042969 C 7.746094 37.191406 10.082031 25.214844 18.894531 19.308594 C 23.402344 16.289062 28.738281 15.441406 33.667969 16.515625 L 33.804688 19.78125 L 33.785156 28.191406 L 33.785156 28.292969 C 33.777344 28.890625 33.742188 31.957031 33.726562 33.148438 C 33.726562 33.21875 33.695312 33.285156 33.644531 33.332031 C 32.953125 33.9375 31.578125 35.273438 31.1875 36.246094 C 30.671875 37.542969 30.695312 39.324219 30.773438 40.761719 C 30.851562 42.21875 30.972656 43.335938 31.222656 44.753906 C 31.472656 46.148438 31.898438 47.890625 32.660156 48.957031 C 33.289062 49.839844 34.101562 50.4375 35.390625 50.523438 L 35.410156 50.527344 L 35.445312 50.527344 C 35.449219 50.527344 35.453125 50.527344 35.464844 50.527344 C 36.753906 50.5 37.589844 49.9375 38.25 49.082031 C 39.046875 48.050781 39.539062 46.332031 39.835938 44.949219 C 40.140625 43.542969 40.304688 42.433594 40.4375 40.984375 C 40.566406 39.546875 40.65625 37.769531 40.1875 36.453125 C 39.832031 35.460938 38.507812 34.0625 37.839844 33.425781 C 37.789062 33.375 37.761719 33.308594 37.761719 33.238281 C 37.792969 31.914062 37.886719 28.28125 37.886719 28.28125 L 38.175781 19.882812 Z M 38.3125 18.171875 " fill-opacity="1" fill-rule="evenodd"/></g></g></g><g clip-path="url(#4d7a5e17bc)"><g clip-path="url(#433180ed6d)"><g clip-path="url(#bbac44e286)"><path fill="#362e2a" d="M 9.714844 42.527344 C 10.292969 44.117188 11.070312 45.664062 12.054688 47.132812 C 13.035156 48.601562 14.171875 49.90625 15.421875 51.042969 C 15.421875 51.042969 15.410156 51.054688 15.410156 51.054688 C 14.832031 51.441406 14.136719 51.90625 13.492188 52.335938 C 12.972656 52.6875 12.335938 52.8125 11.71875 52.691406 C 11.101562 52.566406 10.558594 52.203125 10.207031 51.679688 L 7.144531 47.109375 C 6.796875 46.585938 6.667969 45.945312 6.785156 45.328125 C 6.90625 44.710938 7.265625 44.167969 7.785156 43.820312 Z M 9.207031 45.183594 C 9.207031 45.183594 10.285156 46.980469 10.902344 47.902344 C 11.519531 48.828125 12.757812 50.527344 12.757812 50.527344 C 12.582031 50.648438 12.464844 50.738281 12.265625 50.871094 C 12.109375 50.976562 11.867188 50.949219 11.601562 50.789062 C 11.332031 50.632812 11.058594 50.359375 10.835938 50.027344 L 8.910156 47.152344 C 8.691406 46.824219 8.542969 46.464844 8.496094 46.160156 C 8.453125 45.851562 8.519531 45.617188 8.675781 45.511719 L 8.945312 45.332031 C 9.015625 45.285156 9.191406 45.195312 9.207031 45.183594 Z M 9.207031 45.183594 " fill-opacity="1" fill-rule="evenodd"/></g></g></g><g clip-path="url(#d8e2c1a741)"><g clip-path="url(#7a0a9fd73d)"><g clip-path="url(#937ca6325d)"><path fill="#cb5636" d="M 22.46875 53.203125 L 22.75 44.980469 C 22.75 44.980469 22.839844 41.457031 22.875 40.023438 C 22.886719 39.648438 22.738281 39.292969 22.46875 39.03125 C 21.832031 38.417969 20.667969 37.214844 20.355469 36.332031 C 19.914062 35.089844 20.234375 31.96875 20.234375 31.96875 L 20.691406 23.488281 C 20.816406 22.992188 21.625 22.945312 21.683594 23.5 L 21.871094 29.679688 L 22.128906 33.007812 C 22.183594 33.597656 22.992188 33.578125 23.082031 33.054688 C 23.082031 33.054688 23.730469 25.144531 23.863281 23.527344 C 23.878906 23.351562 23.992188 23.203125 24.160156 23.144531 C 24.332031 23.082031 24.523438 23.085938 24.695312 23.15625 C 24.859375 23.222656 24.96875 23.375 24.976562 23.550781 C 25.050781 25.175781 25.410156 33.105469 25.410156 33.105469 C 25.480469 33.636719 26.289062 33.691406 26.363281 33.105469 L 26.742188 29.789062 L 27.160156 23.625 C 27.234375 23.070312 28.042969 23.160156 28.148438 23.660156 L 28.292969 32.152344 C 28.292969 32.152344 28.5 35.285156 28.011719 36.507812 C 27.667969 37.371094 26.460938 38.523438 25.800781 39.109375 C 25.523438 39.355469 25.363281 39.707031 25.359375 40.078125 C 25.339844 41.511719 25.300781 45.035156 25.300781 45.035156 L 25.28125 53.648438 L 25.300781 54.105469 C 24.335938 53.878906 23.390625 53.578125 22.46875 53.203125 Z M 22.46875 53.203125 " fill-opacity="1" fill-rule="evenodd"/></g></g></g><g clip-path="url(#9b5e19db8a)"><g clip-path="url(#a9e63c20d2)"><g clip-path="url(#791a1a8704)"><path fill="#cb5636" d="M 37.535156 17.800781 L 37.375 19.832031 L 37.082031 28.257812 C 37.082031 28.257812 36.992188 31.890625 36.960938 33.214844 C 36.949219 33.515625 37.070312 33.800781 37.285156 34.007812 C 37.890625 34.582031 39.109375 35.824219 39.429688 36.71875 C 39.863281 37.9375 39.757812 39.582031 39.636719 40.90625 C 39.507812 42.320312 39.347656 43.402344 39.054688 44.777344 C 38.777344 46.046875 38.347656 47.640625 37.613281 48.589844 C 37.097656 49.253906 36.449219 49.699219 35.441406 49.722656 C 34.4375 49.65625 33.804688 49.179688 33.3125 48.492188 C 32.613281 47.507812 32.242188 45.898438 32.015625 44.617188 C 31.769531 43.234375 31.648438 42.144531 31.574219 40.722656 C 31.503906 39.390625 31.453125 37.746094 31.933594 36.550781 C 32.285156 35.667969 33.550781 34.484375 34.171875 33.9375 C 34.398438 33.742188 34.527344 33.460938 34.53125 33.160156 C 34.546875 31.835938 34.589844 28.199219 34.589844 28.199219 L 34.609375 19.769531 L 34.480469 16.710938 C 35.523438 16.988281 36.546875 17.351562 37.535156 17.800781 Z M 37.535156 17.800781 " fill-opacity="1" fill-rule="evenodd"/></g></g></g><g clip-path="url(#81373dfd4c)"><g clip-path="url(#cdc4f024fa)"><g clip-path="url(#3c25b39ae7)"><path fill="#362e2a" d="M 51.121094 18.109375 C 51.121094 18.105469 51.121094 18.101562 51.121094 18.097656 C 51.449219 16.503906 52.664062 14.78125 54.519531 13.539062 C 57.476562 11.558594 60.945312 11.539062 62.253906 13.496094 C 63.566406 15.453125 62.230469 18.648438 59.273438 20.632812 C 57.421875 21.871094 55.371094 22.34375 53.773438 22.042969 C 53.765625 22.042969 53.757812 22.039062 53.75 22.035156 C 53.738281 22.039062 53.714844 22.042969 53.683594 22.050781 C 51.425781 22.472656 49.652344 23.71875 48.554688 25.707031 L 48.527344 25.726562 C 48.148438 24.984375 47.722656 24.257812 47.246094 23.550781 C 46.8125 22.902344 46.347656 22.285156 45.855469 21.699219 C 45.8125 21.644531 45.769531 21.589844 45.722656 21.539062 C 45.710938 21.527344 45.75 21.519531 45.75 21.519531 C 45.941406 21.5 46.128906 21.472656 46.316406 21.433594 C 48.3125 21.054688 49.941406 19.929688 51.082031 18.167969 C 51.148438 18.0625 51.128906 18.101562 51.121094 18.109375 Z M 53.75 22.035156 C 53.785156 22.03125 53.738281 22.035156 53.742188 22.035156 Z M 58.894531 15.746094 C 59.503906 16.65625 59.101562 17.996094 58 18.734375 C 56.898438 19.472656 55.507812 19.332031 54.898438 18.421875 C 54.289062 17.515625 54.691406 16.175781 55.792969 15.4375 C 56.894531 14.699219 58.285156 14.835938 58.894531 15.746094 Z M 58.894531 15.746094 " fill-opacity="1" fill-rule="evenodd"/></g></g></g><g clip-path="url(#658868edd8)"><g clip-path="url(#49e52b5cfd)"><g clip-path="url(#4cbc95a7d8)"><path fill="#362e2a" d="M 9.167969 38.554688 C 7.933594 30.800781 11.152344 22.691406 18.070312 18.054688 C 21.691406 15.625 25.8125 14.5 29.875 14.566406 C 30.136719 14.570312 30.347656 14.363281 30.351562 14.105469 C 30.351562 13.84375 30.144531 13.628906 29.886719 13.625 C 25.636719 13.558594 21.332031 14.734375 17.542969 17.269531 C 10.3125 22.117188 6.949219 30.59375 8.242188 38.699219 C 8.28125 38.953125 8.523438 39.128906 8.78125 39.089844 C 9.035156 39.050781 9.210938 38.808594 9.167969 38.554688 Z M 49.667969 29.964844 C 51.9375 38.328125 48.800781 47.558594 41.234375 52.628906 C 37.769531 54.949219 33.855469 56.078125 29.964844 56.117188 C 29.707031 56.121094 29.5 56.332031 29.503906 56.589844 C 29.503906 56.851562 29.71875 57.0625 29.980469 57.058594 C 34.042969 57.019531 38.136719 55.835938 41.757812 53.410156 C 49.667969 48.109375 52.949219 38.464844 50.574219 29.71875 C 50.507812 29.46875 50.246094 29.320312 49.996094 29.386719 C 49.746094 29.453125 49.597656 29.710938 49.667969 29.964844 Z M 49.667969 29.964844 " fill-opacity="1" fill-rule="evenodd"/></g></g></g></svg>